<svg width="474" height="101" viewBox="0 0 474 101" fill="none" xmlns="http://www.w3.org/2000/svg">
<rect width="118" height="101" fill="#3B82F6"/>
<path d="M190.841 37.4545V84H183.341L161.409 52.2955H161.023V84H152.591V37.4545H160.136L182.045 69.1818H182.455V37.4545H190.841ZM209.71 84.7045C207.498 84.7045 205.506 84.3106 203.733 83.5227C201.975 82.7197 200.581 81.5379 199.551 79.9773C198.536 78.4167 198.028 76.4924 198.028 74.2045C198.028 72.2348 198.392 70.6061 199.119 69.3182C199.847 68.0303 200.839 67 202.097 66.2273C203.354 65.4545 204.771 64.8712 206.347 64.4773C207.938 64.0682 209.581 63.7727 211.278 63.5909C213.324 63.3788 214.983 63.1894 216.256 63.0227C217.528 62.8409 218.453 62.5682 219.028 62.2045C219.619 61.8258 219.915 61.2424 219.915 60.4545V60.3182C219.915 58.6061 219.407 57.2803 218.392 56.3409C217.377 55.4015 215.915 54.9318 214.006 54.9318C211.991 54.9318 210.392 55.3712 209.21 56.25C208.044 57.1288 207.256 58.1667 206.847 59.3636L199.165 58.2727C199.771 56.1515 200.771 54.3788 202.165 52.9545C203.559 51.5151 205.263 50.4394 207.278 49.7273C209.294 49 211.521 48.6364 213.96 48.6364C215.642 48.6364 217.316 48.8333 218.983 49.2273C220.65 49.6212 222.172 50.2727 223.551 51.1818C224.93 52.0758 226.036 53.2955 226.869 54.8409C227.718 56.3864 228.142 58.3182 228.142 60.6364V84H220.233V79.2045H219.96C219.46 80.1742 218.756 81.0833 217.847 81.9318C216.953 82.7652 215.824 83.4394 214.46 83.9545C213.112 84.4545 211.528 84.7045 209.71 84.7045ZM211.847 78.6591C213.498 78.6591 214.93 78.3333 216.142 77.6818C217.354 77.0152 218.286 76.1364 218.938 75.0455C219.604 73.9545 219.938 72.7652 219.938 71.4773V67.3636C219.68 67.5758 219.241 67.7727 218.619 67.9545C218.013 68.1364 217.331 68.2955 216.574 68.4318C215.816 68.5682 215.066 68.6894 214.324 68.7955C213.581 68.9015 212.938 68.9924 212.392 69.0682C211.165 69.2348 210.066 69.5076 209.097 69.8864C208.127 70.2652 207.362 70.7955 206.801 71.4773C206.241 72.1439 205.96 73.0076 205.96 74.0682C205.96 75.5833 206.513 76.7273 207.619 77.5C208.725 78.2727 210.134 78.6591 211.847 78.6591ZM253.847 49.0909V55.4545H233.778V49.0909H253.847ZM238.733 40.7273H246.96V73.5C246.96 74.6061 247.127 75.4545 247.46 76.0455C247.809 76.6212 248.263 77.0152 248.824 77.2273C249.384 77.4394 250.006 77.5455 250.688 77.5455C251.203 77.5455 251.672 77.5076 252.097 77.4318C252.536 77.3561 252.869 77.2879 253.097 77.2273L254.483 83.6591C254.044 83.8106 253.415 83.9773 252.597 84.1591C251.794 84.3409 250.809 84.447 249.642 84.4773C247.581 84.5379 245.725 84.2273 244.074 83.5455C242.422 82.8485 241.112 81.7727 240.142 80.3182C239.188 78.8636 238.718 77.0455 238.733 74.8636V40.7273ZM260.727 84V49.0909H268.955V84H260.727ZM264.864 44.1364C263.561 44.1364 262.439 43.7045 261.5 42.8409C260.561 41.9621 260.091 40.9091 260.091 39.6818C260.091 38.4394 260.561 37.3864 261.5 36.5227C262.439 35.6439 263.561 35.2045 264.864 35.2045C266.182 35.2045 267.303 35.6439 268.227 36.5227C269.167 37.3864 269.636 38.4394 269.636 39.6818C269.636 40.9091 269.167 41.9621 268.227 42.8409C267.303 43.7045 266.182 44.1364 264.864 44.1364ZM308.597 49.0909L296.165 84H287.074L274.642 49.0909H283.415L291.438 75.0227H291.801L299.847 49.0909H308.597ZM328.557 84.6818C325.057 84.6818 322.034 83.9545 319.489 82.5C316.958 81.0303 315.011 78.9545 313.648 76.2727C312.284 73.5758 311.602 70.4015 311.602 66.75C311.602 63.1591 312.284 60.0076 313.648 57.2955C315.027 54.5682 316.951 52.447 319.42 50.9318C321.89 49.4015 324.792 48.6364 328.125 48.6364C330.277 48.6364 332.307 48.9848 334.216 49.6818C336.14 50.3636 337.837 51.4242 339.307 52.8636C340.792 54.303 341.958 56.1364 342.807 58.3636C343.655 60.5758 344.08 63.2121 344.08 66.2727V68.7955H315.466V63.25H336.193C336.178 61.6742 335.837 60.2727 335.17 59.0455C334.504 57.803 333.572 56.8258 332.375 56.1136C331.193 55.4015 329.814 55.0455 328.239 55.0455C326.557 55.0455 325.08 55.4545 323.807 56.2727C322.534 57.0758 321.542 58.1364 320.83 59.4545C320.133 60.7576 319.777 62.1894 319.761 63.75V68.5909C319.761 70.6212 320.133 72.3636 320.875 73.8182C321.617 75.2576 322.655 76.3636 323.989 77.1364C325.322 77.8939 326.883 78.2727 328.67 78.2727C329.867 78.2727 330.951 78.1061 331.92 77.7727C332.89 77.4242 333.731 76.9167 334.443 76.25C335.155 75.5833 335.693 74.7576 336.057 73.7727L343.739 74.6364C343.254 76.6667 342.33 78.4394 340.966 79.9545C339.617 81.4545 337.89 82.6212 335.784 83.4545C333.678 84.2727 331.269 84.6818 328.557 84.6818ZM367.278 84V37.4545H375.71V76.9318H396.21V84H367.278ZM403.165 84V49.0909H411.392V84H403.165ZM407.301 44.1364C405.998 44.1364 404.877 43.7045 403.938 42.8409C402.998 41.9621 402.528 40.9091 402.528 39.6818C402.528 38.4394 402.998 37.3864 403.938 36.5227C404.877 35.6439 405.998 35.2045 407.301 35.2045C408.619 35.2045 409.741 35.6439 410.665 36.5227C411.604 37.3864 412.074 38.4394 412.074 39.6818C412.074 40.9091 411.604 41.9621 410.665 42.8409C409.741 43.7045 408.619 44.1364 407.301 44.1364ZM447.443 58.3182L439.943 59.1364C439.731 58.3788 439.36 57.6667 438.83 57C438.314 56.3333 437.617 55.7955 436.739 55.3864C435.86 54.9773 434.784 54.7727 433.511 54.7727C431.799 54.7727 430.36 55.1439 429.193 55.8864C428.042 56.6288 427.473 57.5909 427.489 58.7727C427.473 59.7879 427.845 60.6136 428.602 61.25C429.375 61.8864 430.648 62.4091 432.42 62.8182L438.375 64.0909C441.678 64.803 444.133 65.9318 445.739 67.4773C447.36 69.0227 448.178 71.0455 448.193 73.5455C448.178 75.7424 447.534 77.6818 446.261 79.3636C445.004 81.0303 443.254 82.3333 441.011 83.2727C438.769 84.2121 436.193 84.6818 433.284 84.6818C429.011 84.6818 425.572 83.7879 422.966 82C420.36 80.197 418.807 77.6894 418.307 74.4773L426.33 73.7045C426.693 75.2803 427.466 76.4697 428.648 77.2727C429.83 78.0758 431.367 78.4773 433.261 78.4773C435.216 78.4773 436.784 78.0758 437.966 77.2727C439.163 76.4697 439.761 75.4773 439.761 74.2955C439.761 73.2955 439.375 72.4697 438.602 71.8182C437.845 71.1667 436.663 70.6667 435.057 70.3182L429.102 69.0682C425.754 68.3712 423.277 67.197 421.67 65.5455C420.064 63.8788 419.269 61.7727 419.284 59.2273C419.269 57.0758 419.852 55.2121 421.034 53.6364C422.231 52.0455 423.89 50.8182 426.011 49.9545C428.148 49.0758 430.61 48.6364 433.398 48.6364C437.489 48.6364 440.708 49.5076 443.057 51.25C445.42 52.9924 446.883 55.3485 447.443 58.3182ZM472.409 49.0909V55.4545H452.341V49.0909H472.409ZM457.295 40.7273H465.523V73.5C465.523 74.6061 465.689 75.4545 466.023 76.0455C466.371 76.6212 466.826 77.0152 467.386 77.2273C467.947 77.4394 468.568 77.5455 469.25 77.5455C469.765 77.5455 470.235 77.5076 470.659 77.4318C471.098 77.3561 471.432 77.2879 471.659 77.2273L473.045 83.6591C472.606 83.8106 471.977 83.9773 471.159 84.1591C470.356 84.3409 469.371 84.447 468.205 84.4773C466.144 84.5379 464.288 84.2273 462.636 83.5455C460.985 82.8485 459.674 81.7727 458.705 80.3182C457.75 78.8636 457.28 77.0455 457.295 74.8636V40.7273Z" fill="white"/>
<path d="M81.1307 49.0909V84H75.5057L59.0568 60.2216H58.767V84H52.4432V49.0909H58.1023L74.5341 72.8864H74.8409V49.0909H81.1307ZM88.0213 84V49.0909H94.3452V78.6989H109.72V84H88.0213Z" fill="white"/>
</svg>
