<svg width="474" height="106" viewBox="0 0 474 106" fill="none" xmlns="http://www.w3.org/2000/svg">
<rect width="118" height="106" fill="#3B82F6"/>
<path d="M190.841 42.4545V89H183.341L161.409 57.2955H161.023V89H152.591V42.4545H160.136L182.045 74.1818H182.455V42.4545H190.841ZM209.71 89.7045C207.498 89.7045 205.506 89.3106 203.733 88.5227C201.975 87.7197 200.581 86.5379 199.551 84.9773C198.536 83.4167 198.028 81.4924 198.028 79.2045C198.028 77.2348 198.392 75.6061 199.119 74.3182C199.847 73.0303 200.839 72 202.097 71.2273C203.354 70.4545 204.771 69.8712 206.347 69.4773C207.938 69.0682 209.581 68.7727 211.278 68.5909C213.324 68.3788 214.983 68.1894 216.256 68.0227C217.528 67.8409 218.453 67.5682 219.028 67.2045C219.619 66.8258 219.915 66.2424 219.915 65.4545V65.3182C219.915 63.6061 219.407 62.2803 218.392 61.3409C217.377 60.4015 215.915 59.9318 214.006 59.9318C211.991 59.9318 210.392 60.3712 209.21 61.25C208.044 62.1288 207.256 63.1667 206.847 64.3636L199.165 63.2727C199.771 61.1515 200.771 59.3788 202.165 57.9545C203.559 56.5151 205.263 55.4394 207.278 54.7273C209.294 54 211.521 53.6364 213.96 53.6364C215.642 53.6364 217.316 53.8333 218.983 54.2273C220.65 54.6212 222.172 55.2727 223.551 56.1818C224.93 57.0758 226.036 58.2955 226.869 59.8409C227.718 61.3864 228.142 63.3182 228.142 65.6364V89H220.233V84.2045H219.96C219.46 85.1742 218.756 86.0833 217.847 86.9318C216.953 87.7652 215.824 88.4394 214.46 88.9545C213.112 89.4545 211.528 89.7045 209.71 89.7045ZM211.847 83.6591C213.498 83.6591 214.93 83.3333 216.142 82.6818C217.354 82.0152 218.286 81.1364 218.938 80.0455C219.604 78.9545 219.938 77.7652 219.938 76.4773V72.3636C219.68 72.5758 219.241 72.7727 218.619 72.9545C218.013 73.1364 217.331 73.2955 216.574 73.4318C215.816 73.5682 215.066 73.6894 214.324 73.7955C213.581 73.9015 212.938 73.9924 212.392 74.0682C211.165 74.2348 210.066 74.5076 209.097 74.8864C208.127 75.2652 207.362 75.7955 206.801 76.4773C206.241 77.1439 205.96 78.0076 205.96 79.0682C205.96 80.5833 206.513 81.7273 207.619 82.5C208.725 83.2727 210.134 83.6591 211.847 83.6591ZM253.847 54.0909V60.4545H233.778V54.0909H253.847ZM238.733 45.7273H246.96V78.5C246.96 79.6061 247.127 80.4545 247.46 81.0455C247.809 81.6212 248.263 82.0152 248.824 82.2273C249.384 82.4394 250.006 82.5455 250.688 82.5455C251.203 82.5455 251.672 82.5076 252.097 82.4318C252.536 82.3561 252.869 82.2879 253.097 82.2273L254.483 88.6591C254.044 88.8106 253.415 88.9773 252.597 89.1591C251.794 89.3409 250.809 89.447 249.642 89.4773C247.581 89.5379 245.725 89.2273 244.074 88.5455C242.422 87.8485 241.112 86.7727 240.142 85.3182C239.188 83.8636 238.718 82.0455 238.733 79.8636V45.7273ZM260.727 89V54.0909H268.955V89H260.727ZM264.864 49.1364C263.561 49.1364 262.439 48.7045 261.5 47.8409C260.561 46.9621 260.091 45.9091 260.091 44.6818C260.091 43.4394 260.561 42.3864 261.5 41.5227C262.439 40.6439 263.561 40.2045 264.864 40.2045C266.182 40.2045 267.303 40.6439 268.227 41.5227C269.167 42.3864 269.636 43.4394 269.636 44.6818C269.636 45.9091 269.167 46.9621 268.227 47.8409C267.303 48.7045 266.182 49.1364 264.864 49.1364ZM308.597 54.0909L296.165 89H287.074L274.642 54.0909H283.415L291.438 80.0227H291.801L299.847 54.0909H308.597ZM328.557 89.6818C325.057 89.6818 322.034 88.9545 319.489 87.5C316.958 86.0303 315.011 83.9545 313.648 81.2727C312.284 78.5758 311.602 75.4015 311.602 71.75C311.602 68.1591 312.284 65.0076 313.648 62.2955C315.027 59.5682 316.951 57.447 319.42 55.9318C321.89 54.4015 324.792 53.6364 328.125 53.6364C330.277 53.6364 332.307 53.9848 334.216 54.6818C336.14 55.3636 337.837 56.4242 339.307 57.8636C340.792 59.303 341.958 61.1364 342.807 63.3636C343.655 65.5758 344.08 68.2121 344.08 71.2727V73.7955H315.466V68.25H336.193C336.178 66.6742 335.837 65.2727 335.17 64.0455C334.504 62.803 333.572 61.8258 332.375 61.1136C331.193 60.4015 329.814 60.0455 328.239 60.0455C326.557 60.0455 325.08 60.4545 323.807 61.2727C322.534 62.0758 321.542 63.1364 320.83 64.4545C320.133 65.7576 319.777 67.1894 319.761 68.75V73.5909C319.761 75.6212 320.133 77.3636 320.875 78.8182C321.617 80.2576 322.655 81.3636 323.989 82.1364C325.322 82.8939 326.883 83.2727 328.67 83.2727C329.867 83.2727 330.951 83.1061 331.92 82.7727C332.89 82.4242 333.731 81.9167 334.443 81.25C335.155 80.5833 335.693 79.7576 336.057 78.7727L343.739 79.6364C343.254 81.6667 342.33 83.4394 340.966 84.9545C339.617 86.4545 337.89 87.6212 335.784 88.4545C333.678 89.2727 331.269 89.6818 328.557 89.6818ZM367.278 89V42.4545H375.71V81.9318H396.21V89H367.278ZM403.165 89V54.0909H411.392V89H403.165ZM407.301 49.1364C405.998 49.1364 404.877 48.7045 403.938 47.8409C402.998 46.9621 402.528 45.9091 402.528 44.6818C402.528 43.4394 402.998 42.3864 403.938 41.5227C404.877 40.6439 405.998 40.2045 407.301 40.2045C408.619 40.2045 409.741 40.6439 410.665 41.5227C411.604 42.3864 412.074 43.4394 412.074 44.6818C412.074 45.9091 411.604 46.9621 410.665 47.8409C409.741 48.7045 408.619 49.1364 407.301 49.1364ZM447.443 63.3182L439.943 64.1364C439.731 63.3788 439.36 62.6667 438.83 62C438.314 61.3333 437.617 60.7955 436.739 60.3864C435.86 59.9773 434.784 59.7727 433.511 59.7727C431.799 59.7727 430.36 60.1439 429.193 60.8864C428.042 61.6288 427.473 62.5909 427.489 63.7727C427.473 64.7879 427.845 65.6136 428.602 66.25C429.375 66.8864 430.648 67.4091 432.42 67.8182L438.375 69.0909C441.678 69.803 444.133 70.9318 445.739 72.4773C447.36 74.0227 448.178 76.0455 448.193 78.5455C448.178 80.7424 447.534 82.6818 446.261 84.3636C445.004 86.0303 443.254 87.3333 441.011 88.2727C438.769 89.2121 436.193 89.6818 433.284 89.6818C429.011 89.6818 425.572 88.7879 422.966 87C420.36 85.197 418.807 82.6894 418.307 79.4773L426.33 78.7045C426.693 80.2803 427.466 81.4697 428.648 82.2727C429.83 83.0758 431.367 83.4773 433.261 83.4773C435.216 83.4773 436.784 83.0758 437.966 82.2727C439.163 81.4697 439.761 80.4773 439.761 79.2955C439.761 78.2955 439.375 77.4697 438.602 76.8182C437.845 76.1667 436.663 75.6667 435.057 75.3182L429.102 74.0682C425.754 73.3712 423.277 72.197 421.67 70.5455C420.064 68.8788 419.269 66.7727 419.284 64.2273C419.269 62.0758 419.852 60.2121 421.034 58.6364C422.231 57.0455 423.89 55.8182 426.011 54.9545C428.148 54.0758 430.61 53.6364 433.398 53.6364C437.489 53.6364 440.708 54.5076 443.057 56.25C445.42 57.9924 446.883 60.3485 447.443 63.3182ZM472.409 54.0909V60.4545H452.341V54.0909H472.409ZM457.295 45.7273H465.523V78.5C465.523 79.6061 465.689 80.4545 466.023 81.0455C466.371 81.6212 466.826 82.0152 467.386 82.2273C467.947 82.4394 468.568 82.5455 469.25 82.5455C469.765 82.5455 470.235 82.5076 470.659 82.4318C471.098 82.3561 471.432 82.2879 471.659 82.2273L473.045 88.6591C472.606 88.8106 471.977 88.9773 471.159 89.1591C470.356 89.3409 469.371 89.447 468.205 89.4773C466.144 89.5379 464.288 89.2273 462.636 88.5455C460.985 87.8485 459.674 86.7727 458.705 85.3182C457.75 83.8636 457.28 82.0455 457.295 79.8636V45.7273Z" fill="black"/>
<path d="M76.1307 48.0909V83H70.5057L54.0568 59.2216H53.767V83H47.4432V48.0909H53.1023L69.5341 71.8864H69.8409V48.0909H76.1307ZM83.0213 83V48.0909H89.3452V77.6989H104.72V83H83.0213Z" fill="white"/>
</svg>
